<svg xmlns="http://www.w3.org/2000/svg" width="24" height="24" viewBox="0 0 24 24">
  <g id="Group_5397" data-name="Group 5397" transform="translate(-2077 -1778)">
    <path id="Vector" d="M14.19,0H5.81C2.17,0,0,2.17,0,5.81v8.37C0,17.83,2.17,20,5.81,20h8.37c3.64,0,5.81-2.17,5.81-5.81V5.81C20,2.17,17.83,0,14.19,0Z" transform="translate(2079 1780)" fill="#e60d21" opacity="0.4"/>
    <path id="Vector-2" data-name="Vector" d="M10.75,1.5H.75A.755.755,0,0,1,0,.75.755.755,0,0,1,.75,0h10a.755.755,0,0,1,.75.75A.755.755,0,0,1,10.75,1.5Z" transform="translate(2083.25 1784.75)" fill="#e60d21"/>
    <path id="Vector-3" data-name="Vector" d="M10.75,1.5H.75A.755.755,0,0,1,0,.75.755.755,0,0,1,.75,0h10a.755.755,0,0,1,.75.75A.755.755,0,0,1,10.75,1.5Z" transform="translate(2083.25 1789.25)" fill="#e60d21"/>
    <path id="Vector-4" data-name="Vector" d="M10.75,1.5H.75A.755.755,0,0,1,0,.75.755.755,0,0,1,.75,0h10a.755.755,0,0,1,.75.75A.755.755,0,0,1,10.75,1.5Z" transform="translate(2083.25 1793.75)" fill="#e60d21"/>
    <path id="Vector-5" data-name="Vector" d="M0,0H24V24H0Z" transform="translate(2077 1778)" fill="none" opacity="0"/>
  </g>
</svg>
