<svg id="profile" xmlns="http://www.w3.org/2000/svg" width="18.729" height="18.729" viewBox="0 0 18.729 18.729">
  <path id="Vector" d="M3.59,6.922a1.419,1.419,0,0,0-.258,0,3.469,3.469,0,1,1,.258,0Z" transform="translate(5.9 1.561)" fill="#e60d21" stroke="#e60d21" stroke-linecap="round" stroke-linejoin="round" stroke-width="1.5" opacity="0.4"/>
  <path id="Vector-2" data-name="Vector" d="M1.416,1.071a2.56,2.56,0,0,0,0,4.581,7.621,7.621,0,0,0,7.812,0,2.56,2.56,0,0,0,0-4.581A7.657,7.657,0,0,0,1.416,1.071Z" transform="translate(4.171 10.291)" fill="#e60d21" stroke="#e60d21" stroke-linecap="round" stroke-linejoin="round" stroke-width="1.5"/>
  <path id="Vector-3" data-name="Vector" d="M0,0H18.729V18.729H0Z" transform="translate(18.729 18.729) rotate(180)" fill="none" opacity="0"/>
</svg>
